<?xml version="1.0" standalone="no"?>
<!DOCTYPE svg PUBLIC "-//W3C//DTD SVG 20010904//EN"
 "http://www.w3.org/TR/2001/REC-SVG-20010904/DTD/svg10.dtd">
<svg version="1.0" xmlns="http://www.w3.org/2000/svg"
 width="405.233262pt" height="405.233262pt" viewBox="0 0 405.233262 405.233262"
 preserveAspectRatio="xMidYMid meet">

<!-- Rounded rectangle background -->
<rect x="10" y="10" width="385.233262" height="385.233262" rx="30" ry="30" 
      fill="#667eea" stroke="none"/>

<g transform="translate(202.6,202.6) rotate(225) scale(0.09) translate(-2500,-2550)"
fill="#ffffff" stroke="none">
<path d="M2380 4595 c-10 -12 -11 -39 -1 -128 12 -126 13 -229 2 -297 -5 -36
-8 -41 -14 -24 -4 11 -19 31 -32 44 -24 23 -26 23 -60 7 -61 -29 -56 -109 8
-131 22 -8 33 -6 57 13 l31 22 -7 -25 c-5 -22 3 -35 56 -87 l62 -61 -6 -132
c-3 -72 -11 -385 -17 -696 -5 -311 -12 -575 -15 -587 -8 -42 -102 -27 -157 25
-42 39 -57 75 -73 165 -8 44 -19 86 -25 94 -19 22 -47 15 -87 -21 -85 -77
-128 -209 -119 -366 5 -80 13 -118 56 -240 43 -124 51 -156 51 -220 0 -90 -12
-119 -129 -304 -108 -172 -143 -276 -144 -426 -1 -112 12 -167 61 -264 62
-125 179 -238 317 -306 334 -166 751 -106 996 141 109 110 167 236 176 381 10
159 -33 297 -148 473 -138 211 -146 255 -84 445 27 83 37 133 37 180 1 128
-69 220 -167 220 -32 0 -46 -9 -104 -65 -54 -52 -74 -65 -99 -65 -18 0 -32 -4
-32 -9 0 -21 22 -67 42 -88 29 -31 65 -29 121 7 56 35 72 37 87 11 18 -35 10
-94 -26 -196 -44 -125 -48 -221 -13 -330 12 -38 23 -93 23 -122 1 -49 -2 -55
-43 -97 -107 -109 -302 -161 -456 -120 -185 48 -227 145 -156 354 40 116 50
225 28 318 -14 55 -14 64 0 77 24 25 51 18 69 -17 75 -146 204 -172 266 -55
23 42 23 46 22 422 0 334 -13 882 -30 1282 l-5 132 52 57 c48 53 51 59 46 98
-4 33 -3 37 5 19 15 -32 60 -48 90 -32 30 15 38 28 38 59 0 68 -78 96 -119 43
-12 -14 -24 -23 -28 -20 -3 4 -8 53 -11 110 -3 76 0 118 11 158 9 30 19 77 23
106 6 47 4 52 -18 67 -22 14 -30 14 -93 -4 -87 -25 -117 -25 -197 0 -76 24
-102 25 -118 5z m748 -3131 c35 -40 23 -93 -28 -119 -78 -40 -151 38 -109 116
23 45 97 46 137 3z m-7 -297 c66 -50 28 -147 -57 -147 -67 0 -100 86 -52 137
24 26 82 31 109 10z"/>
<path d="M2835 4535 c-15 -14 -25 -36 -25 -53 0 -57 77 -94 113 -54 32 36 22
102 -18 120 -36 17 -43 15 -70 -13z"/>
<path d="M2247 4532 c-23 -25 -21 -78 3 -102 26 -26 51 -25 84 1 32 25 36 77
8 102 -25 22 -75 21 -95 -1z"/>
<path d="M2265 4355 c-29 -28 -32 -61 -9 -93 29 -42 114 -19 114 31 0 29 -22
65 -47 76 -32 14 -30 15 -58 -14z"/>
<path d="M2811 4341 c-28 -38 -26 -55 5 -80 51 -40 114 -17 114 42 0 65 -82
90 -119 38z"/>
</g>
</svg>
